<svg width="32" height="32" viewBox="0 0 32 32" fill="none" xmlns="http://www.w3.org/2000/svg">
<mask id="mask0_401_694" style="mask-type:alpha" maskUnits="userSpaceOnUse" x="0" y="0" width="32" height="32">
<rect width="32" height="32" fill="#D9D9D9"/>
</mask>
<g mask="url(#mask0_401_694)">
<path d="M6.154 26.6654C5.54022 26.6654 5.02778 26.4598 4.61667 26.0487C4.20556 25.6376 4 25.1251 4 24.5114V11.486C4 10.8723 4.20556 10.3598 4.61667 9.9487C5.02778 9.53759 5.54022 9.33203 6.154 9.33203H12V7.4857C12 6.87214 12.2056 6.35981 12.6167 5.9487C13.0278 5.53759 13.5402 5.33203 14.154 5.33203H17.846C18.4598 5.33203 18.9722 5.53759 19.3833 5.9487C19.7944 6.35981 20 6.87214 20 7.4857V9.33203H25.846C26.4598 9.33203 26.9722 9.53759 27.3833 9.9487C27.7944 10.3598 28 10.8723 28 11.486V24.5114C28 25.1251 27.7944 25.6376 27.3833 26.0487C26.9722 26.4598 26.4598 26.6654 25.846 26.6654H6.154ZM13.3333 9.33203H18.6667V7.4857C18.6667 7.28059 18.5812 7.09259 18.4103 6.9217C18.2394 6.75081 18.0513 6.66536 17.846 6.66536H14.154C13.9487 6.66536 13.7606 6.75081 13.5897 6.9217C13.4188 7.09259 13.3333 7.28059 13.3333 7.4857V9.33203ZM26.6667 19.332H18.6667V21.332H13.3333V19.332H5.33333V24.5114C5.33333 24.7167 5.41878 24.9048 5.58967 25.0757C5.76056 25.2466 5.94867 25.332 6.154 25.332H25.846C26.0513 25.332 26.2394 25.2466 26.4103 25.0757C26.5812 24.9048 26.6667 24.7167 26.6667 24.5114V19.332ZM14.6667 19.9987H17.3333V17.332H14.6667V19.9987ZM5.33333 17.9987H13.3333V15.9987H18.6667V17.9987H26.6667V11.486C26.6667 11.2807 26.5812 11.0926 26.4103 10.9217C26.2394 10.7508 26.0513 10.6654 25.846 10.6654H6.154C5.94867 10.6654 5.76056 10.7508 5.58967 10.9217C5.41878 11.0926 5.33333 11.2807 5.33333 11.486V17.9987Z" fill="#FF5C19"/>
</g>
</svg>
