<svg width="40" height="40" viewBox="0 0 40 40" fill="none" xmlns="http://www.w3.org/2000/svg">
<mask id="mask0_302_502" style="mask-type:alpha" maskUnits="userSpaceOnUse" x="0" y="0" width="40" height="40">
<rect width="40" height="40" fill="#D9D9D9"/>
</mask>
<g mask="url(#mask0_302_502)">
<path d="M12.6925 36.6654C11.9467 36.6654 11.3114 36.4031 10.7867 35.8787C10.2622 35.354 10 34.7187 10 33.9729V6.02453C10 5.25731 10.2569 4.61675 10.7708 4.10286C11.2847 3.58898 11.9253 3.33203 12.6925 3.33203H27.4358C28.1817 3.33203 28.8168 3.59425 29.3413 4.1187C29.866 4.64342 30.1283 5.2787 30.1283 6.02453V11.3833C30.5428 11.4283 30.9028 11.6004 31.2083 11.8995C31.5139 12.1984 31.6667 12.5584 31.6667 12.9795V15.9283C31.6667 16.3491 31.5139 16.7091 31.2083 17.0083C30.9028 17.3074 30.5428 17.4795 30.1283 17.5245V33.9729C30.1283 34.7187 29.866 35.354 29.3413 35.8787C28.8168 36.4031 28.1817 36.6654 27.4358 36.6654H12.6925ZM12.6925 34.9987H27.4358C27.735 34.9987 27.9807 34.9026 28.1729 34.7104C28.3654 34.5179 28.4617 34.272 28.4617 33.9729V6.02453C28.4617 5.72536 28.3654 5.47953 28.1729 5.28703C27.9807 5.09481 27.735 4.9987 27.4358 4.9987H12.6925C12.3933 4.9987 12.1475 5.09481 11.955 5.28703C11.7628 5.47953 11.6667 5.72536 11.6667 6.02453V33.9729C11.6667 34.272 11.7628 34.5179 11.955 34.7104C12.1475 34.9026 12.3933 34.9987 12.6925 34.9987ZM20.0642 32.0499C20.4294 32.0499 20.7344 31.9276 20.9792 31.6829C21.2239 31.4384 21.3463 31.1334 21.3463 30.7679C21.3463 30.4026 21.2239 30.0976 20.9792 29.8529C20.7344 29.6081 20.4294 29.4858 20.0642 29.4858C19.6986 29.4858 19.3936 29.6081 19.1492 29.8529C18.9044 30.0976 18.7821 30.4026 18.7821 30.7679C18.7821 31.1334 18.9044 31.4384 19.1492 31.6829C19.3936 31.9276 19.6986 32.0499 20.0642 32.0499Z" fill="#FF5C19"/>
</g>
</svg>
